<svg width="24" height="25" viewBox="0 0 24 25" fill="none" xmlns="http://www.w3.org/2000/svg">
<path fill-rule="evenodd" clip-rule="evenodd" d="M12 22.2162C17.523 22.2162 22 17.7392 22 12.2162C22 6.69319 17.523 2.21619 12 2.21619C6.477 2.21619 2 6.69319 2 12.2162C2 17.7392 6.477 22.2162 12 22.2162ZM12.75 9.21619C12.75 9.01727 12.671 8.82651 12.5303 8.68586C12.3897 8.5452 12.1989 8.46619 12 8.46619C11.8011 8.46619 11.6103 8.5452 11.4697 8.68586C11.329 8.82651 11.25 9.01727 11.25 9.21619V11.4662H9C8.80109 11.4662 8.61032 11.5452 8.46967 11.6859C8.32902 11.8265 8.25 12.0173 8.25 12.2162C8.25 12.4151 8.32902 12.6059 8.46967 12.7465C8.61032 12.8872 8.80109 12.9662 9 12.9662H11.25V15.2162C11.25 15.4151 11.329 15.6059 11.4697 15.7465C11.6103 15.8872 11.8011 15.9662 12 15.9662C12.1989 15.9662 12.3897 15.8872 12.5303 15.7465C12.671 15.6059 12.75 15.4151 12.75 15.2162V12.9662H15C15.1989 12.9662 15.3897 12.8872 15.5303 12.7465C15.671 12.6059 15.75 12.4151 15.75 12.2162C15.75 12.0173 15.671 11.8265 15.5303 11.6859C15.3897 11.5452 15.1989 11.4662 15 11.4662H12.75V9.21619Z" fill="#637381"/>
</svg>
