<svg width="18" height="18" viewBox="0 0 18 18" fill="none" xmlns="http://www.w3.org/2000/svg">
<path opacity="0.5" d="M3.75042 4.6875C3.6354 4.68741 3.52311 4.72259 3.4287 4.78829C3.33429 4.854 3.26229 4.94706 3.2224 5.05495C3.18252 5.16283 3.17666 5.28036 3.20563 5.39167C3.2346 5.50299 3.297 5.60274 3.38442 5.6775L8.63442 10.1775C8.84442 10.3575 9.15567 10.3575 9.36642 10.1775L14.6164 5.6775C14.7038 5.60274 14.7662 5.50299 14.7952 5.39167C14.8242 5.28036 14.8183 5.16283 14.7784 5.05495C14.7386 4.94706 14.6666 4.854 14.5721 4.78829C14.4777 4.72259 14.3654 4.68741 14.2504 4.6875H3.75042Z" fill="#00A76F"/>
<path fill-rule="evenodd" clip-rule="evenodd" d="M3.32245 7.88403C3.37055 7.82791 3.42923 7.78182 3.49515 7.74839C3.56106 7.71497 3.63292 7.69486 3.70661 7.68922C3.7803 7.68357 3.85439 7.69251 3.92462 7.71551C3.99486 7.73852 4.05987 7.77513 4.11595 7.82328L8.99995 12.009L13.884 7.82328C13.94 7.77462 14.005 7.73753 14.0754 7.71413C14.1458 7.69073 14.2202 7.68149 14.2942 7.68694C14.3682 7.6924 14.4403 7.71243 14.5065 7.74589C14.5728 7.77935 14.6317 7.82558 14.68 7.88192C14.7282 7.93825 14.7649 8.00358 14.7878 8.07414C14.8107 8.1447 14.8195 8.21909 14.8135 8.29304C14.8076 8.36699 14.7871 8.43904 14.7531 8.50502C14.7192 8.57101 14.6726 8.62964 14.616 8.67753L9.36595 13.1775C9.26401 13.2649 9.13419 13.3129 8.99995 13.3129C8.86571 13.3129 8.73589 13.2649 8.63395 13.1775L3.38395 8.67753C3.32783 8.62943 3.28175 8.57075 3.24832 8.50483C3.21489 8.43891 3.19478 8.36706 3.18914 8.29337C3.1835 8.21967 3.19244 8.14559 3.21544 8.07536C3.23844 8.00512 3.27506 7.9401 3.3232 7.88403H3.32245Z" fill="#00A76F"/>
</svg>
