<svg width="39" height="44" viewBox="0 0 39 44" fill="none" xmlns="http://www.w3.org/2000/svg">
<path fill-rule="evenodd" clip-rule="evenodd" d="M13.9315 0.850647C13.4322 0.859813 12.9376 1.14346 12.7387 1.7026C9.23376 11.5823 1.32625 15.9846 0.877731 24.2021C0.868834 24.3473 0.864123 24.4934 0.859936 24.6401C0.85889 24.7134 0.851562 24.7862 0.851562 24.8596H0.854703C0.854179 24.8972 0.851562 24.9354 0.851562 24.9741C0.851562 32.0301 6.73051 37.7503 13.9828 37.7503C21.235 37.7503 27.114 32.0301 27.114 24.9741C27.114 24.9354 27.1108 24.8972 27.1103 24.8596H27.114C27.114 24.7862 27.1061 24.7134 27.1051 24.6401C27.1009 24.4934 27.0962 24.3473 27.0873 24.2021C26.6393 15.9877 18.581 11.5858 15.1792 1.71431C14.9845 1.14855 14.4857 0.860322 13.9817 0.850647H13.9315Z" fill="url(#paint0_linear_150_1615)"/>
<path fill-rule="evenodd" clip-rule="evenodd" d="M38.7409 30.4743C38.7409 30.401 38.7331 30.3287 38.732 30.2559C38.7284 30.1092 38.7237 29.9625 38.7148 29.8169C38.2662 21.603 30.2085 17.2007 26.8067 7.32924C26.412 6.18398 24.7713 6.17583 24.3662 7.31803C20.8607 17.1976 12.9532 21.5999 12.5047 29.8169C12.4958 29.9625 12.4911 30.1092 12.4874 30.2559C12.4858 30.3287 12.4785 30.401 12.4785 30.4743H12.4817C12.4811 30.5125 12.4785 30.5502 12.4785 30.5889C12.4785 37.6448 18.3575 43.3655 25.6097 43.3655C32.8615 43.3655 38.7409 37.6448 38.7409 30.5889C38.7409 30.5502 38.7378 30.5125 38.7378 30.4743H38.7409Z" fill="url(#paint1_linear_150_1615)"/>
<path fill-rule="evenodd" clip-rule="evenodd" d="M21.6934 12.8832C20.5201 14.8368 19.2311 16.5785 17.9987 18.2439C15.2316 21.9831 12.7497 25.3367 12.5046 29.8364C12.4957 29.9818 12.491 30.1282 12.4874 30.2745C12.4868 30.3003 12.4855 30.326 12.4843 30.3518C12.4819 30.3986 12.4796 30.4454 12.4816 30.4926C12.4814 30.5095 12.4808 30.5263 12.4801 30.5431C12.4793 30.5642 12.4785 30.5854 12.4785 30.607C12.4785 33.2538 13.3057 35.7124 14.7219 37.7503C21.6259 37.4006 27.1133 31.8327 27.1133 25.0156C27.1133 24.9944 27.1123 24.9733 27.1114 24.9524C27.1106 24.9353 27.1099 24.9182 27.1096 24.9013H27.1133C27.1133 24.8621 27.1111 24.823 27.1088 24.7839C27.1069 24.7501 27.1049 24.7162 27.1044 24.6822C27.1003 24.5358 27.0956 24.3899 27.0867 24.2451C26.8468 19.8379 24.4164 16.5302 21.6934 12.8832Z" fill="white"/>
<path fill-rule="evenodd" clip-rule="evenodd" d="M21.6934 12.8832C20.5201 14.8368 19.2311 16.5785 17.9987 18.2439C15.2316 21.9831 12.7497 25.3367 12.5046 29.8364C12.4957 29.9818 12.491 30.1282 12.4874 30.2745C12.4868 30.3003 12.4855 30.326 12.4843 30.3518C12.4819 30.3986 12.4796 30.4454 12.4816 30.4926C12.4814 30.5095 12.4808 30.5263 12.4801 30.5431C12.4793 30.5642 12.4785 30.5854 12.4785 30.607C12.4785 33.2538 13.3057 35.7124 14.7219 37.7503C21.6259 37.4006 27.1133 31.8327 27.1133 25.0156C27.1133 24.9944 27.1123 24.9733 27.1114 24.9524C27.1106 24.9353 27.1099 24.9182 27.1096 24.9013H27.1133C27.1133 24.8621 27.1111 24.823 27.1088 24.7839C27.1069 24.7501 27.1049 24.7162 27.1044 24.6822C27.1003 24.5358 27.0956 24.3899 27.0867 24.2451C26.8468 19.8379 24.4164 16.5302 21.6934 12.8832Z" fill="url(#paint2_linear_150_1615)" fill-opacity="0.6"/>
<path fill-rule="evenodd" clip-rule="evenodd" d="M21.6934 12.8832C20.5201 14.8368 19.2311 16.5785 17.9987 18.2439C15.2316 21.9831 12.7497 25.3367 12.5046 29.8364C12.4957 29.9818 12.491 30.1282 12.4874 30.2745C12.4868 30.3003 12.4855 30.326 12.4843 30.3518C12.4819 30.3986 12.4796 30.4454 12.4816 30.4926C12.4814 30.5095 12.4808 30.5263 12.4801 30.5431C12.4793 30.5642 12.4785 30.5854 12.4785 30.607C12.4785 33.2538 13.3057 35.7124 14.7219 37.7503C21.6259 37.4006 27.1133 31.8327 27.1133 25.0156C27.1133 24.9944 27.1123 24.9733 27.1114 24.9524C27.1106 24.9353 27.1099 24.9182 27.1096 24.9013H27.1133C27.1133 24.8621 27.1111 24.823 27.1088 24.7839C27.1069 24.7501 27.1049 24.7162 27.1044 24.6822C27.1003 24.5358 27.0956 24.3899 27.0867 24.2451C26.8468 19.8379 24.4164 16.5302 21.6934 12.8832Z" fill="url(#paint3_linear_150_1615)" fill-opacity="0.6"/>
<mask id="mask0_150_1615" style="mask-type:luminance" maskUnits="userSpaceOnUse" x="12" y="12" width="16" height="26">
<path fill-rule="evenodd" clip-rule="evenodd" d="M21.6934 12.8832C20.5201 14.8368 19.2311 16.5785 17.9987 18.2439C15.2316 21.9831 12.7497 25.3367 12.5046 29.8364C12.4957 29.9818 12.491 30.1282 12.4874 30.2745C12.4868 30.3003 12.4855 30.326 12.4843 30.3518C12.4819 30.3986 12.4796 30.4454 12.4816 30.4926C12.4814 30.5095 12.4808 30.5263 12.4801 30.5431C12.4793 30.5642 12.4785 30.5854 12.4785 30.607C12.4785 33.2538 13.3057 35.7124 14.7219 37.7503C21.6259 37.4006 27.1133 31.8327 27.1133 25.0156C27.1133 24.9944 27.1123 24.9733 27.1114 24.9524C27.1106 24.9353 27.1099 24.9182 27.1096 24.9013H27.1133C27.1133 24.8621 27.1111 24.823 27.1088 24.7839C27.1069 24.7501 27.1049 24.7162 27.1044 24.6822C27.1003 24.5358 27.0956 24.3899 27.0867 24.2451C26.8468 19.8379 24.4164 16.5302 21.6934 12.8832Z" fill="white"/>
</mask>
<g mask="url(#mask0_150_1615)">
</g>
<defs>
<linearGradient id="paint0_linear_150_1615" x1="27.9647" y1="37.7505" x2="27.9651" y2="-1.54039" gradientUnits="userSpaceOnUse">
<stop stop-color="#D8DD2F"/>
<stop offset="1" stop-color="#4AB849"/>
</linearGradient>
<linearGradient id="paint1_linear_150_1615" x1="41.5349" y1="43.3653" x2="41.5349" y2="-1.38575" gradientUnits="userSpaceOnUse">
<stop stop-color="#EDE869"/>
<stop offset="1" stop-color="#FFD400"/>
</linearGradient>
<linearGradient id="paint2_linear_150_1615" x1="28.6702" y1="37.7502" x2="28.6702" y2="7.5919" gradientUnits="userSpaceOnUse">
<stop stop-color="#EDE869"/>
<stop offset="1" stop-color="#FFD400"/>
</linearGradient>
<linearGradient id="paint3_linear_150_1615" x1="27.5874" y1="37.7504" x2="27.5877" y2="11.2718" gradientUnits="userSpaceOnUse">
<stop stop-color="#D8DD2F"/>
<stop offset="1" stop-color="#4AB849"/>
</linearGradient>
</defs>
</svg>
