<svg width="150" height="55" viewBox="0 0 150 55" fill="none" xmlns="http://www.w3.org/2000/svg">
<path fill-rule="evenodd" clip-rule="evenodd" d="M18.9305 5.85065C18.4312 5.85981 17.9366 6.14346 17.7378 6.7026C14.2328 16.5823 6.32528 20.9846 5.87675 29.2021C5.86786 29.3473 5.86315 29.4934 5.85896 29.6401C5.85791 29.7134 5.85059 29.7862 5.85059 29.8596H5.85373C5.8532 29.8972 5.85059 29.9354 5.85059 29.9741C5.85059 37.0301 11.7295 42.7503 18.9818 42.7503C26.234 42.7503 32.113 37.0301 32.113 29.9741C32.113 29.9354 32.1099 29.8972 32.1093 29.8596H32.113C32.113 29.7862 32.1051 29.7134 32.1041 29.6401C32.0999 29.4934 32.0952 29.3473 32.0863 29.2021C31.6383 20.9877 23.5801 16.5858 20.1782 6.71431C19.9835 6.14855 19.4847 5.86032 18.9807 5.85065H18.9305Z" fill="url(#paint0_linear_127_5509)"/>
<path fill-rule="evenodd" clip-rule="evenodd" d="M43.7409 35.4743C43.7409 35.401 43.7331 35.3287 43.732 35.2559C43.7284 35.1092 43.7237 34.9625 43.7148 34.8169C43.2662 26.603 35.2085 22.2007 31.8067 12.3292C31.412 11.184 29.7713 11.1758 29.3662 12.318C25.8607 22.1976 17.9532 26.5999 17.5047 34.8169C17.4958 34.9625 17.4911 35.1092 17.4874 35.2559C17.4858 35.3287 17.4785 35.401 17.4785 35.4743H17.4817C17.4811 35.5125 17.4785 35.5502 17.4785 35.5889C17.4785 42.6448 23.3575 48.3655 30.6097 48.3655C37.8615 48.3655 43.7409 42.6448 43.7409 35.5889C43.7409 35.5502 43.7378 35.5125 43.7378 35.4743H43.7409Z" fill="url(#paint1_linear_127_5509)"/>
<path fill-rule="evenodd" clip-rule="evenodd" d="M26.6934 17.8832C25.5201 19.8368 24.2311 21.5785 22.9987 23.2439C20.2316 26.9831 17.7497 30.3367 17.5046 34.8364C17.4957 34.9818 17.491 35.1282 17.4874 35.2745C17.4868 35.3003 17.4855 35.326 17.4843 35.3518C17.4819 35.3986 17.4796 35.4454 17.4816 35.4926C17.4814 35.5095 17.4808 35.5263 17.4801 35.5431C17.4793 35.5642 17.4785 35.5854 17.4785 35.607C17.4785 38.2538 18.3057 40.7124 19.7219 42.7503C26.6259 42.4006 32.1133 36.8327 32.1133 30.0156C32.1133 29.9944 32.1123 29.9733 32.1114 29.9524C32.1106 29.9353 32.1099 29.9182 32.1096 29.9013H32.1133C32.1133 29.8621 32.1111 29.823 32.1088 29.7839C32.1069 29.7501 32.1049 29.7162 32.1044 29.6822C32.1003 29.5358 32.0956 29.3899 32.0867 29.2451C31.8468 24.8379 29.4164 21.5302 26.6934 17.8832Z" fill="white"/>
<path fill-rule="evenodd" clip-rule="evenodd" d="M26.6934 17.8832C25.5201 19.8368 24.2311 21.5785 22.9987 23.2439C20.2316 26.9831 17.7497 30.3367 17.5046 34.8364C17.4957 34.9818 17.491 35.1282 17.4874 35.2745C17.4868 35.3003 17.4855 35.326 17.4843 35.3518C17.4819 35.3986 17.4796 35.4454 17.4816 35.4926C17.4814 35.5095 17.4808 35.5263 17.4801 35.5431C17.4793 35.5642 17.4785 35.5854 17.4785 35.607C17.4785 38.2538 18.3057 40.7124 19.7219 42.7503C26.6259 42.4006 32.1133 36.8327 32.1133 30.0156C32.1133 29.9944 32.1123 29.9733 32.1114 29.9524C32.1106 29.9353 32.1099 29.9182 32.1096 29.9013H32.1133C32.1133 29.8621 32.1111 29.823 32.1088 29.7839C32.1069 29.7501 32.1049 29.7162 32.1044 29.6822C32.1003 29.5358 32.0956 29.3899 32.0867 29.2451C31.8468 24.8379 29.4164 21.5302 26.6934 17.8832Z" fill="url(#paint2_linear_127_5509)" fill-opacity="0.6"/>
<path fill-rule="evenodd" clip-rule="evenodd" d="M26.6934 17.8832C25.5201 19.8368 24.2311 21.5785 22.9987 23.2439C20.2316 26.9831 17.7497 30.3367 17.5046 34.8364C17.4957 34.9818 17.491 35.1282 17.4874 35.2745C17.4868 35.3003 17.4855 35.326 17.4843 35.3518C17.4819 35.3986 17.4796 35.4454 17.4816 35.4926C17.4814 35.5095 17.4808 35.5263 17.4801 35.5431C17.4793 35.5642 17.4785 35.5854 17.4785 35.607C17.4785 38.2538 18.3057 40.7124 19.7219 42.7503C26.6259 42.4006 32.1133 36.8327 32.1133 30.0156C32.1133 29.9944 32.1123 29.9733 32.1114 29.9524C32.1106 29.9353 32.1099 29.9182 32.1096 29.9013H32.1133C32.1133 29.8621 32.1111 29.823 32.1088 29.7839C32.1069 29.7501 32.1049 29.7162 32.1044 29.6822C32.1003 29.5358 32.0956 29.3899 32.0867 29.2451C31.8468 24.8379 29.4164 21.5302 26.6934 17.8832Z" fill="url(#paint3_linear_127_5509)" fill-opacity="0.6"/>
<mask id="mask0_127_5509" style="mask-type:luminance" maskUnits="userSpaceOnUse" x="17" y="17" width="16" height="26">
<path fill-rule="evenodd" clip-rule="evenodd" d="M26.6934 17.8832C25.5201 19.8368 24.2311 21.5785 22.9987 23.2439C20.2316 26.9831 17.7497 30.3367 17.5046 34.8364C17.4957 34.9818 17.491 35.1282 17.4874 35.2745C17.4868 35.3003 17.4855 35.326 17.4843 35.3518C17.4819 35.3986 17.4796 35.4454 17.4816 35.4926C17.4814 35.5095 17.4808 35.5263 17.4801 35.5431C17.4793 35.5642 17.4785 35.5854 17.4785 35.607C17.4785 38.2538 18.3057 40.7124 19.7219 42.7503C26.6259 42.4006 32.1133 36.8327 32.1133 30.0156C32.1133 29.9944 32.1123 29.9733 32.1114 29.9524C32.1106 29.9353 32.1099 29.9182 32.1096 29.9013H32.1133C32.1133 29.8621 32.1111 29.823 32.1088 29.7839C32.1069 29.7501 32.1049 29.7162 32.1044 29.6822C32.1003 29.5358 32.0956 29.3899 32.0867 29.2451C31.8468 24.8379 29.4164 21.5302 26.6934 17.8832Z" fill="white"/>
</mask>
<g mask="url(#mask0_127_5509)">
</g>
<path d="M56.1389 30.5533V26.5263C56.6169 25.754 57.7018 25.0921 58.8051 25.0921C60.5887 25.0921 61.6552 26.5631 61.6552 28.5306C61.6552 30.4981 60.5887 31.9507 58.8051 31.9507C57.7018 31.9507 56.6169 31.3255 56.1389 30.5533ZM56.1389 32.9621V31.6381C56.8008 32.5391 57.8857 33.1827 59.1361 33.1827C61.4529 33.1827 63.0894 31.4175 63.0894 28.5306C63.0894 25.6805 61.4713 23.8601 59.1361 23.8601C57.9409 23.8601 56.856 24.4485 56.1389 25.4231V20.6974H54.7598V32.9621H56.1389Z" fill="#1A3F36"/>
<path d="M69.3633 33.1827C70.7975 33.1827 71.9927 32.6862 72.8937 31.8036L72.2318 30.9026C71.5147 31.6381 70.5033 32.0427 69.4736 32.0427C67.5613 32.0427 66.4028 30.6452 66.2925 28.9719H73.4638V28.6225C73.4638 25.9563 71.8824 23.8601 69.1978 23.8601C66.6603 23.8601 64.8215 25.9379 64.8215 28.5122C64.8215 31.2888 66.7154 33.1827 69.3633 33.1827ZM72.1031 27.9422H66.2741C66.3477 26.5999 67.2855 25.0001 69.1794 25.0001C71.2021 25.0001 72.0847 26.6367 72.1031 27.9422Z" fill="#1A3F36"/>
<path d="M79.0073 36.5661C81.1954 36.5661 83.071 35.3709 83.071 32.8517V24.0807H81.6919V30.4429C81.177 31.1417 80.1473 31.7852 79.0808 31.7852C77.8672 31.7852 77.0765 31.3072 77.0765 29.7442V24.0807H75.6975V30.1671C75.6975 32.0978 76.672 32.9988 78.5292 32.9988C79.8531 32.9988 81.0115 32.3001 81.6919 31.5278V32.8517C81.6919 34.4699 80.6806 35.426 79.0073 35.426C77.9408 35.426 76.9662 35.0583 76.3043 34.2308L75.6055 35.2238C76.5065 36.1248 77.5362 36.5661 79.0073 36.5661Z" fill="#1A3F36"/>
<path d="M89.7049 33.1827C92.408 33.1827 94.0996 31.0865 94.0996 28.5122C94.0996 25.9379 92.408 23.8601 89.7049 23.8601C87.0019 23.8601 85.3103 25.9379 85.3103 28.5122C85.3103 31.0865 87.0019 33.1827 89.7049 33.1827ZM89.7049 31.9507C87.811 31.9507 86.7629 30.3326 86.7629 28.5122C86.7629 26.7102 87.811 25.0921 89.7049 25.0921C91.5989 25.0921 92.647 26.7102 92.647 28.5122C92.647 30.3326 91.5989 31.9507 89.7049 31.9507Z" fill="#1A3F36"/>
<path d="M103.721 32.9621V26.7286C103.721 24.7979 102.747 23.8601 100.908 23.8601C99.5657 23.8601 98.3521 24.614 97.7269 25.3679V24.0807H96.3478V32.9621H97.7269V26.4712C98.2602 25.754 99.2715 25.0921 100.356 25.0921C101.552 25.0921 102.361 25.5702 102.361 27.1515V32.9621H103.721Z" fill="#1A3F36"/>
<path d="M114.308 32.9621V20.6974H112.929V25.4231C112.212 24.4485 111.127 23.8601 109.932 23.8601C107.615 23.8601 105.979 25.6805 105.979 28.5306C105.979 31.4175 107.615 33.1827 109.932 33.1827C111.182 33.1827 112.267 32.5391 112.929 31.6381V32.9621H114.308ZM110.281 31.9507C108.479 31.9507 107.413 30.4981 107.413 28.5306C107.413 26.5631 108.479 25.0921 110.281 25.0921C111.366 25.0921 112.451 25.754 112.929 26.5263V30.5349C112.451 31.3072 111.366 31.9507 110.281 31.9507Z" fill="#1A3F36"/>
<path d="M125.708 33.1827C128.411 33.1827 130.103 31.0865 130.103 28.5122C130.103 25.9379 128.411 23.8601 125.708 23.8601C123.005 23.8601 121.314 25.9379 121.314 28.5122C121.314 31.0865 123.005 33.1827 125.708 33.1827ZM125.708 31.9507C123.814 31.9507 122.766 30.3326 122.766 28.5122C122.766 26.7102 123.814 25.0921 125.708 25.0921C127.602 25.0921 128.65 26.7102 128.65 28.5122C128.65 30.3326 127.602 31.9507 125.708 31.9507Z" fill="#1A3F36"/>
<path d="M133.05 22.812C133.565 22.812 133.969 22.4075 133.969 21.8926C133.969 21.3777 133.565 20.9548 133.05 20.9548C132.535 20.9548 132.112 21.3777 132.112 21.8926C132.112 22.4075 132.535 22.812 133.05 22.812ZM133.73 32.9621V24.0807H132.351V32.9621H133.73Z" fill="#1A3F36"/>
<path d="M138.449 33.1827C139.258 33.1827 139.736 32.9437 140.104 32.6127L139.681 31.5646C139.515 31.7669 139.148 31.9507 138.761 31.9507C138.155 31.9507 137.86 31.4726 137.86 30.8107V20.6974H136.481V31.1049C136.481 32.4288 137.143 33.1827 138.449 33.1827Z" fill="#1A3F36"/>
<defs>
<linearGradient id="paint0_linear_127_5509" x1="32.9637" y1="42.7505" x2="32.9641" y2="3.45961" gradientUnits="userSpaceOnUse">
<stop stop-color="#D8DD2F"/>
<stop offset="1" stop-color="#4AB849"/>
</linearGradient>
<linearGradient id="paint1_linear_127_5509" x1="46.5349" y1="48.3653" x2="46.5349" y2="3.61425" gradientUnits="userSpaceOnUse">
<stop stop-color="#EDE869"/>
<stop offset="1" stop-color="#FFD400"/>
</linearGradient>
<linearGradient id="paint2_linear_127_5509" x1="33.6702" y1="42.7502" x2="33.6702" y2="12.5919" gradientUnits="userSpaceOnUse">
<stop stop-color="#EDE869"/>
<stop offset="1" stop-color="#FFD400"/>
</linearGradient>
<linearGradient id="paint3_linear_127_5509" x1="32.5874" y1="42.7504" x2="32.5877" y2="16.2718" gradientUnits="userSpaceOnUse">
<stop stop-color="#D8DD2F"/>
<stop offset="1" stop-color="#4AB849"/>
</linearGradient>
</defs>
</svg>
