<svg width="24" height="25" viewBox="0 0 24 25" fill="none" xmlns="http://www.w3.org/2000/svg">
<path opacity="0.32" d="M21.1808 17.1865C20.8971 17.8416 20.2225 18.2162 19.5086 18.2162H14.8154C14.8462 18.1307 14.8735 18.0431 14.8971 17.9535C15.1709 16.9136 14.8825 15.8552 14.2214 15.1125C14.4654 13.1253 14.6177 11.0894 14.7108 9.48135C14.7569 8.6835 13.7795 8.417 13.4274 9.13145C12.7178 10.5714 11.8493 12.412 11.0842 14.2572C10.1467 14.564 9.3768 15.3338 9.10295 16.3737C8.93642 17.0061 8.97782 17.6453 9.18451 18.2162H4.49141C3.77747 18.2162 3.10288 17.8416 2.81918 17.1865C2.29212 15.9694 2 14.6269 2 13.2162C2 7.69334 6.47715 3.21619 12 3.21619C17.5229 3.21619 22 7.69334 22 13.2162C22 14.6269 21.7079 15.9694 21.1808 17.1865Z" fill="#00A76F"/>
<path d="M14.7108 9.48135C14.7569 8.6835 13.7795 8.417 13.4274 9.13145C12.7178 10.5714 11.8493 12.412 11.0842 14.2572C10.1467 14.564 9.3768 15.3338 9.10295 16.3737C8.6742 18.0018 9.62375 19.6752 11.2238 20.1114C12.8238 20.5477 14.4684 19.5815 14.8971 17.9535C15.1709 16.9136 14.8825 15.8552 14.2214 15.1125C14.4654 13.1253 14.6177 11.0894 14.7108 9.48135Z" fill="#00A76F"/>
</svg>
