<svg width="24" height="25" viewBox="0 0 24 25" fill="none" xmlns="http://www.w3.org/2000/svg">
<path opacity="0.32" fill-rule="evenodd" clip-rule="evenodd" d="M14.2793 2.36819C13.9093 2.21619 13.4393 2.21619 12.5003 2.21619C11.5613 2.21619 11.0913 2.21619 10.7213 2.36819C10.2288 2.5704 9.8367 2.95995 9.63132 3.45119C9.53732 3.67419 9.50132 3.93519 9.48632 4.31419C9.47965 4.58879 9.40305 4.85716 9.26376 5.09391C9.12448 5.33066 8.92711 5.52797 8.69032 5.66719C8.44906 5.80129 8.17786 5.87233 7.90184 5.87373C7.62582 5.87513 7.35392 5.80684 7.11132 5.67519C6.77332 5.49719 6.52832 5.39919 6.28632 5.36719C5.75687 5.29767 5.22139 5.43999 4.79632 5.76319C4.47832 6.00519 4.24332 6.40919 3.77432 7.21619C3.30432 8.02319 3.07032 8.42619 3.01732 8.82119C2.94732 9.34719 3.09132 9.87919 3.41732 10.3002C3.56532 10.4922 3.77432 10.6532 4.09732 10.8552C4.57432 11.1522 4.88032 11.6582 4.88032 12.2162C4.88032 12.7742 4.57432 13.2802 4.09832 13.5762C3.77432 13.7792 3.56532 13.9402 3.41632 14.1322C3.2554 14.3401 3.13728 14.5779 3.0688 14.8318C3.00031 15.0856 2.98282 15.3505 3.01732 15.6112C3.07032 16.0052 3.30432 16.4092 3.77432 17.2162L3.77993 17.2258C4.24618 18.0264 4.47958 18.4272 4.79632 18.6692C5.22032 18.9922 5.75632 19.1342 6.28632 19.0652C6.52832 19.0332 6.77332 18.9352 7.11132 18.7572C7.35404 18.6254 7.62613 18.557 7.90234 18.5584C8.17855 18.5598 8.44994 18.6309 8.69132 18.7652C9.17732 19.0452 9.46532 19.5602 9.48632 20.1182C9.50132 20.4982 9.53732 20.7582 9.63132 20.9812C9.83532 21.4712 10.2273 21.8612 10.7213 22.0642C11.0913 22.2162 11.5613 22.2162 12.5003 22.2162C13.4393 22.2162 13.9093 22.2162 14.2793 22.0642C14.7719 21.862 15.1639 21.4724 15.3693 20.9812C15.4633 20.7582 15.4993 20.4982 15.5143 20.1182C15.5343 19.5602 15.8233 19.0442 16.3103 18.7652C16.5516 18.6311 16.8228 18.56 17.0988 18.5586C17.3748 18.5572 17.6467 18.6255 17.8893 18.7572C18.2273 18.9352 18.4723 19.0332 18.7143 19.0652C19.2443 19.1352 19.7803 18.9922 20.2043 18.6692C20.5223 18.4272 20.7573 18.0232 21.2263 17.2162C21.6963 16.4092 21.9303 16.0062 21.9833 15.6112C22.0177 15.3505 22 15.0855 21.9314 14.8316C21.8627 14.5778 21.7444 14.3401 21.5833 14.1322C21.4353 13.9402 21.2263 13.7792 20.9033 13.5772C20.4263 13.2802 20.1203 12.7742 20.1203 12.2162C20.1203 11.6582 20.4263 11.1522 20.9023 10.8562C21.2263 10.6532 21.4353 10.4922 21.5843 10.3002C21.7452 10.0922 21.8633 9.85448 21.9318 9.60062C22.0003 9.34676 22.0178 9.08185 21.9833 8.82119C21.9303 8.42719 21.6963 8.02319 21.2263 7.21619L21.2207 7.20654C20.7545 6.40598 20.521 6.00521 20.2043 5.76319C19.7792 5.43999 19.2438 5.29767 18.7143 5.36719C18.4723 5.39919 18.2273 5.49719 17.8893 5.67519C17.6466 5.80702 17.3745 5.8754 17.0983 5.874C16.8221 5.87261 16.5507 5.80147 16.3093 5.66719C16.0727 5.52785 15.8755 5.33048 15.7364 5.09374C15.5973 4.857 15.5209 4.58869 15.5143 4.31419C15.4993 3.93419 15.4633 3.67419 15.3693 3.45119C15.2677 3.20792 15.1191 2.98707 14.9321 2.80124C14.745 2.61542 14.5232 2.46826 14.2793 2.36819ZM15.5226 12.2162C15.5226 13.8732 14.1686 15.2162 12.4996 15.2162C10.8296 15.2162 9.47656 13.8732 9.47656 12.2162C9.47656 10.5592 10.8296 9.21619 12.4996 9.21619C14.1696 9.21619 15.5226 10.5592 15.5226 12.2162Z" fill="#637381"/>
<path d="M15.5226 12.2162C15.5226 13.8732 14.1686 15.2162 12.4996 15.2162C10.8296 15.2162 9.47656 13.8732 9.47656 12.2162C9.47656 10.5592 10.8296 9.21619 12.4996 9.21619C14.1696 9.21619 15.5226 10.5592 15.5226 12.2162Z" fill="#637381"/>
</svg>
