<svg width="24" height="25" viewBox="0 0 24 25" fill="none" xmlns="http://www.w3.org/2000/svg">
<g opacity="0.32">
<path d="M2.60946 23.2005C1.77292 23.1792 1.13928 22.6761 1.07089 21.8421C1.02993 21.3425 1 20.656 1 19.7162C1 18.7764 1.02993 18.0898 1.07089 17.5903C1.13928 16.7563 1.77292 16.2531 2.60946 16.2319C2.97545 16.2226 3.43306 16.2162 4 16.2162C4.56694 16.2162 5.02455 16.2226 5.39055 16.2319C6.2271 16.2531 6.8607 16.7563 6.9291 17.5903C6.97005 18.0898 7 18.7764 7 19.7162C7 20.656 6.97005 21.3425 6.9291 21.8421C6.8607 22.6761 6.2271 23.1792 5.39055 23.2005C5.02455 23.2098 4.56694 23.2162 4 23.2162C3.43306 23.2162 2.97545 23.2098 2.60946 23.2005Z" fill="#637381"/>
<path d="M18.8455 23.1954C17.8709 23.157 17.1875 22.4718 17.1243 21.4985C17.0588 20.4892 17 18.8499 17 16.2162C17 13.5825 17.0588 11.9431 17.1243 10.9339C17.1875 9.96054 17.8709 9.27539 18.8455 9.23694C19.1671 9.22424 19.549 9.21619 20 9.21619C20.451 9.21619 20.8329 9.22424 21.1545 9.23694C22.1291 9.27539 22.8125 9.96054 22.8757 10.9339C22.9412 11.9431 23 13.5825 23 16.2162C23 18.8499 22.9412 20.4892 22.8757 21.4985C22.8125 22.4718 22.1291 23.157 21.1545 23.1954C20.8329 23.2081 20.451 23.2162 20 23.2162C19.549 23.2162 19.1671 23.2081 18.8455 23.1954Z" fill="#637381"/>
<path d="M10.7766 23.1993C9.8427 23.1709 9.162 22.558 9.0949 21.6261C9.0422 20.8937 9 19.8098 9 18.2162C9 16.6226 9.0422 15.5387 9.0949 14.8062C9.162 13.8743 9.8427 13.2614 10.7766 13.233C11.1122 13.2228 11.5163 13.2162 12 13.2162C12.4837 13.2162 12.8878 13.2228 13.2234 13.233C14.1573 13.2614 14.838 13.8743 14.9051 14.8062C14.9578 15.5387 15 16.6226 15 18.2162C15 19.8098 14.9578 20.8937 14.9051 21.6261C14.838 22.558 14.1573 23.1709 13.2234 23.1993C12.8878 23.2095 12.4837 23.2162 12 23.2162C11.5163 23.2162 11.1122 23.2095 10.7766 23.1993Z" fill="#637381"/>
</g>
<path d="M20.9603 6.26679C20.9106 7.25474 19.9709 7.62594 19.242 6.95719C18.9106 6.65309 18.5138 6.27874 18.0418 5.81904C16.9756 6.78929 15.322 8.30204 13.3506 10.1326C12.8329 10.6134 11.992 10.5596 11.5397 10.0169L11.5394 10.0165C10.6518 8.95454 9.75755 7.89689 8.8322 6.86759C7.7509 7.66149 5.81 9.17444 3.88389 11.1005C3.39573 11.5887 2.60427 11.5887 2.11612 11.1005C1.62796 10.6124 1.62796 9.82094 2.11612 9.33279C4.00573 7.44319 6.079 5.67069 8.30255 4.17933L8.306 4.17701C8.30685 4.17645 8.3066 4.1766 8.3066 4.1766C8.8024 3.84609 9.46255 3.91145 9.8839 4.33278C10.8519 5.30074 11.7265 6.36544 12.6118 7.40884C14.1169 6.01684 15.3848 4.85705 16.274 4.04759C15.8705 3.63124 15.5362 3.27625 15.26 2.97516C14.591 2.24616 14.9624 1.30617 15.9506 1.25644C17.2115 1.19298 18.5055 1.15564 19.7511 1.38851C20.3119 1.49336 20.7233 1.90481 20.8281 2.46567C21.061 3.7114 21.0238 5.00567 20.9603 6.26679Z" fill="#637381"/>
</svg>
