<svg width="18" height="18" viewBox="0 0 18 18" fill="none" xmlns="http://www.w3.org/2000/svg">
<path opacity="0.5" d="M3.75042 13.3125C3.6354 13.3126 3.52311 13.2774 3.4287 13.2117C3.33429 13.146 3.26229 13.0529 3.2224 12.945C3.18252 12.8372 3.17666 12.7196 3.20563 12.6083C3.2346 12.497 3.297 12.3972 3.38442 12.3225L8.63442 7.82249C8.73636 7.73514 8.86618 7.68713 9.00042 7.68713C9.13466 7.68713 9.26448 7.73514 9.36642 7.82249L14.6164 12.3225C14.7038 12.3972 14.7662 12.497 14.7952 12.6083C14.8242 12.7196 14.8183 12.8372 14.7784 12.945C14.7386 13.0529 14.6666 13.146 14.5721 13.2117C14.4777 13.2774 14.3654 13.3126 14.2504 13.3125H3.75042Z" fill="#B71D18"/>
<path fill-rule="evenodd" clip-rule="evenodd" d="M3.32208 10.116C3.37018 10.1721 3.42886 10.2182 3.49478 10.2516C3.56069 10.285 3.63255 10.3051 3.70624 10.3108C3.77993 10.3164 3.85402 10.3075 3.92425 10.2845C3.99449 10.2615 4.0595 10.2249 4.11558 10.1767L8.99958 5.99097L13.8836 10.1767C13.9392 10.2277 14.0045 10.2669 14.0756 10.2921C14.1466 10.3173 14.222 10.3279 14.2973 10.3234C14.3726 10.3188 14.4462 10.2992 14.5137 10.2657C14.5813 10.2321 14.6414 10.1853 14.6904 10.1281C14.7395 10.0708 14.7766 10.0043 14.7995 9.93245C14.8224 9.8606 14.8305 9.78487 14.8236 9.70979C14.8166 9.6347 14.7946 9.56179 14.7588 9.49538C14.7231 9.42898 14.6744 9.37043 14.6156 9.32322L9.36558 4.82322C9.26364 4.73588 9.13383 4.68787 8.99958 4.68787C8.86534 4.68787 8.73552 4.73588 8.63358 4.82322L3.38358 9.32322C3.27047 9.42034 3.20054 9.55838 3.18915 9.70703C3.17775 9.85567 3.22584 10.0028 3.32283 10.116H3.32208Z" fill="#B71D18"/>
</svg>
